Coordinates
version=1
nRows=19
nColumns=24
inDegrees=yes

Units are S.I. units (second, meters, Newtons, ...)
Angles are in degrees.

endheader
time	pelvis_tilt	pelvis_list	pelvis_rotation	pelvis_tx	pelvis_ty	pelvis_tz	hip_flexion_r	hip_adduction_r	hip_rotation_r	knee_angle_r	ankle_angle_r	subtalar_angle_r	mtp_angle_r	hip_flexion_l	hip_adduction_l	hip_rotation_l	knee_angle_l	ankle_angle_l	subtalar_angle_l	mtp_angle_l	lumbar_extension	lumbar_bending	lumbar_rotation
      3.76000000	     -9.39347514	      3.16489194	     -8.75725883	     -2.32923567	     -0.02499576	      0.45038084	     -5.66358574	     -1.04004585	      7.87383234	    -14.18261849	      3.63442415	      3.46290866	      7.29144410	     29.32669628	     -0.13503981	      0.32639761	     -4.70451375	     -5.45592711	      4.96554038	     13.95149208	      7.13080301	     -2.09316712	     12.03612989
      3.76500000	     -9.44425769	      3.23061236	     -8.80681006	     -2.32222663	     -0.02568539	      0.44986341	     -5.75860061	     -1.23225245	      7.73788756	    -14.71465853	      3.32101157	      3.82743753	      7.76358313	     29.51039145	      0.04932007	      0.30176892	     -5.75130645	     -5.46177460	      4.84706258	     13.86961183	      7.33033244	     -2.14258330	     12.04033737
      3.77000000	     -9.48248275	      3.28467371	     -8.87362904	     -2.31519315	     -0.02635654	      0.44938842	     -5.84547049	     -1.41446416	      7.61504859	    -15.28371018	      2.97720670	      4.21545318	      8.21390216	     29.65583190	      0.21261378	      0.26401129	     -6.78267699	     -5.59093592	      4.66558593	     13.81668487	      7.51805338	     -2.18967808	     12.09369361
      3.77500000	     -9.46926422	      3.32899578	     -8.93507181	     -2.30812470	     -0.02695484	      0.44896773	     -5.97023851	     -1.57618637	      7.54321231	    -15.90481900	      2.52428092	      4.45441975	      8.41014647	     29.71241995	      0.36950844	      0.15213943	     -7.75197179	     -5.81654239	      4.50470528	     13.82537766	      7.64763715	     -2.24645618	     12.08446223
      3.78000000	     -9.59857684	      3.47318521	     -8.97634566	     -2.30091105	     -0.02768696	      0.44835772	     -5.87923672	     -1.86911995	      7.26892529	    -16.58340395	      2.18275254	      5.08684924	      9.14883291	     29.88912663	      0.61718828	      0.02561527	     -8.63190437	     -6.27498229	      4.27669299	     13.74716164	      7.96359705	     -2.35901338	     12.20945274
      3.78500000	     -9.67502308	      3.59093210	     -8.99107678	     -2.29374500	     -0.02833668	      0.44776993	     -5.82497576	     -2.12333978	      7.02515594	    -17.30380567	      1.71281961	      5.54210091	      9.74688913	     29.98671090	      0.84804328	     -0.10082482	     -9.43626909	     -6.83448018	      4.04119732	     13.70976882	      8.20528150	     -2.47109016	     12.25027078
      3.79000000	     -9.75217237	      3.74846430	     -9.01609662	     -2.28659283	     -0.02891168	      0.44722038	     -5.71558074	     -2.42120989	      6.76634925	    -18.09132561	      1.19096403	      6.01766067	     10.37458134	     30.05511299	      1.09681518	     -0.30016744	    -10.12910017	     -7.56414255	      3.81142497	     13.69039784	      8.45005300	     -2.63240087	     12.31447172
      3.79500000	     -9.82943148	      3.92243056	     -9.04863882	     -2.27950021	     -0.02940868	      0.44664578	     -5.53269771	     -2.74433450	      6.47301675	    -18.97358042	      0.59472176	      6.53981246	     11.12500419	     30.08718559	      1.34967490	     -0.47157860	    -10.69791266	     -8.43952604	      3.50594649	     13.70219373	      8.68384035	     -2.80644321	     12.34819581
      3.80000000	     -9.91036473	      4.15507726	     -9.06655376	     -2.27235791	     -0.02981449	      0.44606000	     -5.30543703	     -3.13113846	      6.16471594	    -19.89649374	     -0.10099379	      7.03396103	     11.86400181	     30.11221526	      1.65811273	     -0.68340064	    -11.20131322	     -9.39180188	      3.17595381	     13.67876506	      8.93733902	     -3.04068917	     12.40680624
      3.80500000	     -9.97625494	      4.34922759	     -9.06036754	     -2.26535644	     -0.03011787	      0.44538502	     -5.04086656	     -3.48677466	      5.82294410	    -20.87202516	     -0.91559021	      7.55504550	     12.81355271	     30.13221561	      1.95228096	     -0.76953395	    -11.69656309	    -10.43107356	      2.61520077	     13.61657148	      9.13770479	     -3.23924969	     12.47746925
      3.81000000	    -10.04064909	      4.61139339	     -9.06852035	     -2.25829160	     -0.03033187	      0.44479735	     -4.71499134	     -3.90755475	      5.51371093	    -21.92438720	     -1.85611119	      7.98708415	     13.71014844	     30.14709048	      2.30173820	     -0.86537809	    -12.18998863	    -11.35466626	      2.04884012	     13.37453725	      9.35901873	     -3.51444472	     12.54653468
      3.81500000	    -10.09925738	      4.87443378	     -9.07569346	     -2.25125830	     -0.03047073	      0.44421705	     -4.33546670	     -4.32712535	      5.22095622	    -23.04409930	     -2.93920758	      8.36220752	     14.68061950	     30.17017059	      2.66643355	     -0.85851294	    -12.73917787	    -12.12980188	      1.35439716	     12.89793824	      9.56596461	     -3.79376243	     12.60672072
      3.82000000	    -10.15982694	      5.18694979	     -9.08096266	     -2.24416076	     -0.03054953	      0.44371348	     -3.90007287	     -4.78301063	      4.98157312	    -24.22771715	     -4.17834977	      8.59760741	     15.58153745	     30.20732704	      3.08675908	     -0.83258066	    -13.34282482	    -12.70759437	      0.61811555	     12.21739977	      9.79325956	     -4.13290748	     12.66318455
      3.82500000	    -10.20024836	      5.40902138	     -9.09843569	     -2.23720880	     -0.03056541	      0.44314174	     -3.42438845	     -5.14595335	      4.77874927	    -25.46995360	     -5.60595898	      8.78022965	     16.67204447	     30.24615604	      3.44997295	     -0.63285865	    -14.05865677	    -13.04698462	     -0.30334956	     11.25829049	      9.95348628	     -4.36705850	     12.73252611
      3.83000000	    -10.20308585	      5.55490246	     -9.07936603	     -2.23037437	     -0.03050956	      0.44255447	     -2.95927570	     -5.41750859	      4.61389551	    -26.71590274	     -7.25132874	      8.82694427	     18.11367599	     30.26881559	      3.77954921	     -0.27975345	    -14.89672215	    -13.03122959	     -1.10994657	     10.05113037	     10.03232917	     -4.54559715	     12.76302213
      3.83500000	    -10.21425526	      5.74376939	     -9.11095238	     -2.22350269	     -0.03042732	      0.44211764	     -2.40994223	     -5.70111840	      4.58446379	    -28.05476796	     -9.05010803	      8.68393457	     19.30726987	     30.29332313	      4.12838817	     -0.03215966	    -15.74883557	    -12.82694407	     -1.87972615	      8.84742652	     10.13812782	     -4.76456939	     12.83303704
      3.84000000	    -10.22203856	      5.90753396	     -9.12566662	     -2.21670587	     -0.03034220	      0.44169960	     -1.80981092	     -5.93272055	      4.60258414	    -29.45597127	    -10.98802059	      8.42312962	     20.50125790	     30.31302216	      4.47106272	      0.27354524	    -16.63727089	    -12.41804967	     -2.55726937	      7.64761631	     10.21952976	     -4.96585829	     12.88209589
      3.84500000	    -10.21200906	      6.08016179	     -9.10924989	     -2.21003377	     -0.03027290	      0.44130879	     -1.16151871	     -6.15275856	      4.61479385	    -30.92762438	    -13.02579405	      7.99708311	     21.86105716	     30.33221793	      4.83242492	      0.50580171	    -17.57169398	    -11.75335980	     -2.94526235	      6.45742982	     10.25617492	     -5.19596487	     12.86910249
      3.85000000	    -10.20836717	      6.21602966	     -9.15963933	     -2.20338458	     -0.03014890	      0.44102349	     -0.44471624	     -6.29203918	      4.80300942	    -32.48498194	    -15.16004319	      7.55881196	     22.67960015	     30.28146471	      5.13459972	      0.80728025	    -18.37774903	    -11.17531815	     -3.49163618	      5.58827831	     10.29992812	     -5.36910203	     12.95436364
